<svg xmlns="http://www.w3.org/2000/svg" version="1.1" xmlns:xlink="http://www.w3.org/1999/xlink" xmlns:svgjs="http://svgjs.dev/svgjs" width="2000" height="550" viewBox="0 0 2000 550"><g transform="matrix(1,0,0,1,-1.2121212121212466,0.3954852014727521)"><svg viewBox="0 0 396 109" data-background-color="#ffffff" preserveAspectRatio="xMidYMid meet" height="550" width="2000" xmlns="http://www.w3.org/2000/svg" xmlns:xlink="http://www.w3.org/1999/xlink"><g id="tight-bounds" transform="matrix(1,0,0,1,0.2400000000000091,-0.07837797629187548)"><svg viewBox="0 0 395.52 109.15675595258375" height="109.15675595258375" width="395.52"><g><svg viewBox="0 0 395.52 109.15675595258375" height="109.15675595258375" width="395.52"><g><svg viewBox="0 0 582.7728554525479 160.835341723362" height="109.15675595258375" width="395.52"><g transform="matrix(1,0,0,1,187.25285545254798,24.466380325612178)"><svg viewBox="0 0 395.52 111.90258107213765" height="111.90258107213765" width="395.52"><g id="textblocktransform"><svg viewBox="0 0 395.52 111.90258107213765" height="111.90258107213765" width="395.52" id="textblock"><g><svg viewBox="0 0 395.52 111.90258107213765" height="111.90258107213765" width="395.52"><g transform="matrix(1,0,0,1,0,0)"><svg width="395.52" viewBox="-2.25 -38.05 151.09 42.75" height="111.90258107213765" data-palette-color="url(#9632b7f0-ab1c-40fa-ad1a-841348d730ea)"><g class="wordmark-text-0" data-fill-palette-color="primary" id="text-0"></g></svg></g></svg></g></svg></g></svg></g><g><svg viewBox="0 0 160.835341723362 160.835341723362" height="160.835341723362" width="160.835341723362"><g><svg></svg></g><g id="icon-0"><svg viewBox="0 0 160.835341723362 160.835341723362" height="160.835341723362" width="160.835341723362"><g><path transform="scale(1.60835,1.60835)" d="M30 100c-16.569 0-30-13.431-30-30v-40c0-16.569 13.431-30 30-30h40c16.569 0 30 13.431 30 30v40c0 16.569-13.431 30-30 30z" fill="#ff9696" fill-rule="nonzero" stroke="none" stroke-width="1" stroke-linecap="butt" stroke-linejoin="miter" stroke-miterlimit="10" stroke-dasharray="" stroke-dashoffset="0" font-family="none" font-weight="none" font-size="none" text-anchor="none" style="mix-blend-mode: normal" data-fill-palette-color="accent"></path></g><g transform="matrix(1,0,0,1,32.167068344672394,32.172821299914595)"><svg viewBox="0 0 96.50120503401722 96.48969912353282" height="96.48969912353282" width="96.50120503401722"><g><svg xmlns="http://www.w3.org/2000/svg" xmlns:xlink="http://www.w3.org/1999/xlink" version="1.1" x="0" y="0" viewBox="0 0 99.99992306523872 99.988" enable-background="new 0 0 100 100" xml:space="preserve" height="96.48969912353282" width="96.50120503401722" class="icon-cg-0" data-fill-palette-color="quaternary" id="cg-0"><g fill="#910707" data-fill-palette-color="quaternary"><path fill-rule="evenodd" clip-rule="evenodd" d="M47.102 0c1.928 0 3.856 0 5.784 0 8.338 0.642 15.042 2.917 20.99 5.95-9.545 9.958-19.296 19.708-29.253 29.252-2.969-3.846-6.214-6.932-13.221-6.279-6.848 0.638-12.008 6.789-12.065 13.552-0.093 11.1 12.636 17.426 21.981 11.239 2.455-1.625 4.708-4.378 6.941-6.611 6.658-6.659 13.369-13.473 19.997-20.164 5.471 4.927 10.706 10.542 16.196 16.032 0.574 0.574 2.305 1.916 2.314 2.148 0.021 0.503-3.571 3.738-3.967 4.132-4.035 4.035-8.129 8.161-12.23 11.9-2.845-5.982-12.565-8.104-18.84-4.297-3.834 2.326-6.286 6.06-6.446 11.238-0.221 7.125 4.855 13.32 11.9 14.047 9.767 1.009 13.735-5.969 18.51-10.742 8.042-8.042 16.394-16.425 24.295-23.963 0.308 16.392-5.383 28.214-13.388 36.524-8.017 8.322-18.679 14.98-33.715 16.03-1.928 0-3.855 0-5.784 0-14.023-1.231-24.828-6.812-32.558-14.543C6.814 77.715 1.225 66.916 0 52.887c0-1.929 0-3.857 0-5.785C0.812 33.583 7.182 22 14.709 14.544 22.682 6.645 33.328 1.089 47.102 0z" fill="#910707" data-fill-palette-color="quaternary"></path></g></svg></g></svg></g></svg></g></svg></g></svg></g></svg></g><defs></defs><mask id="806b8681-d07f-48de-9663-efb89476c31e"><g id="SvgjsG1012"><svg viewBox="0 0 395.52 109.15675595258375" height="109.15675595258375" width="395.52"><g><svg viewBox="0 0 395.52 109.15675595258375" height="109.15675595258375" width="395.52"><g><svg viewBox="0 0 582.7728554525479 160.835341723362" height="109.15675595258375" width="395.52"><g transform="matrix(1,0,0,1,187.25285545254798,24.466380325612178)"><svg viewBox="0 0 395.52 111.90258107213765" height="111.90258107213765" width="395.52"><g id="SvgjsG1011"><svg viewBox="0 0 395.52 111.90258107213765" height="111.90258107213765" width="395.52" id="SvgjsSvg1010"><g><svg viewBox="0 0 395.52 111.90258107213765" height="111.90258107213765" width="395.52"><g transform="matrix(1,0,0,1,0,0)"><svg width="395.52" viewBox="-2.25 -38.05 151.09 42.75" height="111.90258107213765" data-palette-color="url(#9632b7f0-ab1c-40fa-ad1a-841348d730ea)"><g class="wordmark-text-0" data-fill-palette-color="primary" id="SvgjsG1009"><path d="M22.5-15.3L22.5-15.3Q26.45-12.4 26.45-8.45 26.45-4.5 23.35-2.1 20.25 0.3 15.55 0.3L15.55 0.3Q12.5 0.3 10.48-1.23 8.45-2.75 8.45-5 8.45-7.25 9.95-8.58 11.45-9.9 13.7-10.2L13.7-10.2Q12.65-8.7 12.65-7.33 12.65-5.95 13.6-5.1L13.6-5.1Q14.55-4.25 16-4.25 17.45-4.25 18.4-5.33 19.35-6.4 19.35-7.8L19.35-7.8Q19.35-10.1 17.2-11.9L17.2-11.9Q15.9-12.95 14.4-13.88 12.9-14.8 12.8-14.85L12.8-14.85Q12.6-15 12.4-15.1L12.4-15.1Q11.5-14.05 9.8-12.23 8.1-10.4 7.1-9.3L7.1-9.3Q4.3-6.25 3.95-4.2L3.95-4.2Q3.85-3.8 3.85-2.68 3.85-1.55 4.53-0.35 5.2 0.85 6.15 1.45 7.1 2.05 8.03 2.43 8.95 2.8 9.63 2.95 10.3 3.1 10.3 3.15L10.3 3.15Q10.3 3.5 9.2 3.95L9.2 3.95Q7.15 4.7 4.93 4.7 2.7 4.7 0.6 3.1L0.6 3.1Q-2.25 0.9-2.25-2.75L-2.25-2.75Q-2.25-5-1.1-7.2L-1.1-7.2Q0.95-11.1 8.5-17.9L8.5-17.9Q6.65-19.75 6.65-21.85 6.65-23.95 8.22-25.4 9.8-26.85 11.95-26.85L11.95-26.85Q13.9-26.85 15.35-25.3L15.35-25.3Q16.3-24.25 16.3-22.65 16.3-21.05 15.25-19.05L15.25-19.05Q20.6-16.65 22.5-15.3ZM11.65-20.95L11.65-20.95Q12.85-22.2 12.85-22.75L12.85-22.75Q12.85-24 11.75-24.1L11.75-24.1Q10.5-24.1 10.5-22.7L10.5-22.7Q10.5-21.85 11.65-20.95ZM40.5-24.05L40.5-24.05Q45.1-24.05 48.17-21.1 51.25-18.15 51.25-13.9L51.25-13.9Q51.25-7.45 47.47-3.58 43.7 0.3 38.35 0.3 33 0.3 29.87-2.75 26.75-5.8 26.75-10.3L26.75-10.3Q26.75-16.6 30.6-20.3L30.6-20.3Q34.5-24.05 40.5-24.05ZM39.52-20Q37.15-20 35.55-17.3 33.95-14.6 33.8-10.5L33.8-10.5Q33.8-7.6 34.97-5.7 36.15-3.8 38.55-3.8 40.95-3.8 42.57-6.45 44.2-9.1 44.2-12.5 44.2-15.9 43.05-17.9L43.05-17.9Q41.9-20 39.52-20ZM66.5-24.05L66.5-24.05Q71.09-24.05 74.17-21.1 77.25-18.15 77.25-13.9L77.25-13.9Q77.25-7.45 73.47-3.58 69.7 0.3 64.34 0.3 59 0.3 55.87-2.75 52.75-5.8 52.75-10.3L52.75-10.3Q52.75-16.6 56.6-20.3L56.6-20.3Q60.5-24.05 66.5-24.05ZM65.52-20Q63.15-20 61.55-17.3 59.95-14.6 59.8-10.5L59.8-10.5Q59.8-7.6 60.97-5.7 62.15-3.8 64.55-3.8 66.95-3.8 68.57-6.45 70.2-9.1 70.2-12.5 70.2-15.9 69.05-17.9L69.05-17.9Q67.9-20 65.52-20ZM90.69-34.8L90.69-34.8Q90.69-34.5 89.34-24.05L89.34-24.05 96.69-24.05 96.69-20.2 88.84-20.2 88.69-18.95Q94.54-14.05 94.54-8.25L94.54-8.25Q94.54-3.7 92.22-1.7 89.89 0.3 86.64 0.3 83.39 0.3 81.89-1.43 80.39-3.15 80.39-5.6L80.39-5.6Q80.39-6.15 80.49-6.8L80.49-6.8 82.04-20.1 81.84-20.2 77.79-20.2Q77.74-20.7 77.74-21.83 77.74-22.95 78.19-24.05L78.19-24.05 82.49-24.05 84.09-37.65Q85.14-38.05 86.89-38.05L86.89-38.05Q90.69-38.05 90.69-34.8ZM91.19-8.3L91.19-8.3Q91.19-11.75 88.19-15.1L88.19-15.1Q87.29-7.65 87.29-6.5L87.29-6.5Q87.29-4.25 88.74-4.25L88.74-4.25Q89.79-4.25 90.49-5.23 91.19-6.2 91.19-8.3ZM110.24-5.7L110.24-5.7 111.44-16.75Q111.44-18.1 110.74-19 110.04-19.9 108.49-19.9 106.94-19.9 105.87-18.68 104.79-17.45 104.29-15.45L104.29-15.45Q103.94-12.6 103.24-7.13 102.54-1.65 102.34 0L102.34 0 95.69 0Q99.29-30.65 100.04-37.65L100.04-37.65Q101.09-38.05 102.89-38.05L102.89-38.05Q106.79-38.05 106.79-35.75L106.79-35.75 106.79-35.45Q105.94-27.6 104.99-21.65L104.99-21.65Q107.64-24.05 110.99-24.05 114.34-24.05 116.29-22.35 118.24-20.65 118.24-18.05L118.24-18.05Q118.24-17.35 117.94-15.45L117.94-15.45Q116.79-7.95 116.79-6.65L116.79-6.65Q116.79-4.3 118.34-4.3L118.34-4.3Q119.64-4.3 121.12-6.03 122.59-7.75 123.49-11.35L123.49-11.35Q125.19-9.55 125.54-8.5L125.54-8.5Q122.94 0.2 116.34 0.2L116.34 0.2Q113.24 0.2 111.74-1.7 110.24-3.6 110.24-5.7ZM130.74-11.2Q133.84-11.85 135.36-13.7 136.89-15.55 136.89-17.28 136.89-19 135.96-19.63 135.04-20.25 133.94-20.25L133.94-20.25Q131.59-20.25 129.81-17.63 128.04-15 128.04-11.38 128.04-7.75 129.76-5.98 131.49-4.2 134.04-4.2L134.04-4.2Q137.79-4.2 141.24-6.8 144.69-9.4 146.84-13.6L146.84-13.6Q147.94-12.55 148.84-11L148.84-11Q147.19-7.25 142.99-3.65L142.99-3.65Q140.89-1.9 138.01-0.8 135.14 0.3 132.09 0.3L132.09 0.3Q127.09 0.3 124.19-2.75L124.19-2.75Q121.09-6.05 121.09-11.2 121.09-16.35 124.96-20.2 128.84-24.05 134.24-24.05L134.24-24.05Q138.09-24.05 140.49-22.38 142.89-20.7 142.94-17.85L142.94-17.85Q142.94-14 139.86-11.6 136.79-9.2 131.44-8.25L131.44-8.25 130.74-11.2Z" fill="white"></path></g></svg></g></svg></g></svg></g></svg></g><g><svg viewBox="0 0 160.835341723362 160.835341723362" height="160.835341723362" width="160.835341723362"><g><svg></svg></g><g id="SvgjsG1008"><svg viewBox="0 0 160.835341723362 160.835341723362" height="160.835341723362" width="160.835341723362"><g><path transform="scale(1.60835,1.60835)" d="M30 100c-16.569 0-30-13.431-30-30v-40c0-16.569 13.431-30 30-30h40c16.569 0 30 13.431 30 30v40c0 16.569-13.431 30-30 30z" fill="black" fill-rule="nonzero" stroke="none" stroke-width="1" stroke-linecap="butt" stroke-linejoin="miter" stroke-miterlimit="10" stroke-dasharray="" stroke-dashoffset="0" font-family="none" font-weight="none" font-size="none" text-anchor="none" style="mix-blend-mode: normal"></path></g><g transform="matrix(1,0,0,1,32.167068344672394,32.172821299914595)"><svg viewBox="0 0 96.50120503401722 96.48969912353282" height="96.48969912353282" width="96.50120503401722"><g><svg xmlns="http://www.w3.org/2000/svg" xmlns:xlink="http://www.w3.org/1999/xlink" version="1.1" x="0" y="0" viewBox="0 0 99.99992306523872 99.988" enable-background="new 0 0 100 100" xml:space="preserve" height="96.48969912353282" width="96.50120503401722" class="icon-cg-0" data-fill-palette-color="quaternary" id="SvgjsSvg1007"><g fill="black"><path fill-rule="evenodd" clip-rule="evenodd" d="M47.102 0c1.928 0 3.856 0 5.784 0 8.338 0.642 15.042 2.917 20.99 5.95-9.545 9.958-19.296 19.708-29.253 29.252-2.969-3.846-6.214-6.932-13.221-6.279-6.848 0.638-12.008 6.789-12.065 13.552-0.093 11.1 12.636 17.426 21.981 11.239 2.455-1.625 4.708-4.378 6.941-6.611 6.658-6.659 13.369-13.473 19.997-20.164 5.471 4.927 10.706 10.542 16.196 16.032 0.574 0.574 2.305 1.916 2.314 2.148 0.021 0.503-3.571 3.738-3.967 4.132-4.035 4.035-8.129 8.161-12.23 11.9-2.845-5.982-12.565-8.104-18.84-4.297-3.834 2.326-6.286 6.06-6.446 11.238-0.221 7.125 4.855 13.32 11.9 14.047 9.767 1.009 13.735-5.969 18.51-10.742 8.042-8.042 16.394-16.425 24.295-23.963 0.308 16.392-5.383 28.214-13.388 36.524-8.017 8.322-18.679 14.98-33.715 16.03-1.928 0-3.855 0-5.784 0-14.023-1.231-24.828-6.812-32.558-14.543C6.814 77.715 1.225 66.916 0 52.887c0-1.929 0-3.857 0-5.785C0.812 33.583 7.182 22 14.709 14.544 22.682 6.645 33.328 1.089 47.102 0z" fill="black"></path></g></svg></g></svg></g></svg></g></svg></g></svg></g></svg></g><defs><mask></mask></defs></svg><rect width="395.52" height="109.15675595258375" fill="black" stroke="none" visibility="hidden"></rect></g></mask><linearGradient x1="0" x2="1" y1="0.5" y2="0.5" id="9632b7f0-ab1c-40fa-ad1a-841348d730ea"><stop stop-color="#f00b51" offset="0"></stop><stop stop-color="#730062" offset="1"></stop></linearGradient><rect width="395.52" height="109.15675595258375" fill="url(#9632b7f0-ab1c-40fa-ad1a-841348d730ea)" mask="url(#806b8681-d07f-48de-9663-efb89476c31e)" data-fill-palette-color="primary"></rect></svg><rect width="395.52" height="109.15675595258375" fill="none" stroke="none" visibility="hidden"></rect></g></svg></g></svg>